%TF.GenerationSoftware,KiCad,Pcbnew,9.0.7*%
%TF.CreationDate,2026-02-07T20:24:00-06:00*%
%TF.ProjectId,Modded_Hackpad_Final,4d6f6464-6564-45f4-9861-636b7061645f,rev?*%
%TF.SameCoordinates,Original*%
%TF.FileFunction,Soldermask,Bot*%
%TF.FilePolarity,Negative*%
%FSLAX46Y46*%
G04 Gerber Fmt 4.6, Leading zero omitted, Abs format (unit mm)*
G04 Created by KiCad (PCBNEW 9.0.7) date 2026-02-07 20:24:00*
%MOMM*%
%LPD*%
G01*
G04 APERTURE LIST*
%ADD10C,1.700000*%
%ADD11C,4.000000*%
%ADD12C,2.200000*%
%ADD13C,1.524000*%
%ADD14R,2.000000X2.000000*%
%ADD15C,2.000000*%
%ADD16R,2.000000X3.200000*%
%ADD17R,1.600000X0.850000*%
G04 APERTURE END LIST*
D10*
%TO.C,SW4*%
X71755000Y-88265000D03*
D11*
X66675000Y-88265000D03*
D10*
X61595000Y-88265000D03*
D12*
X64135000Y-93345000D03*
X70485000Y-90805000D03*
%TD*%
D10*
%TO.C,SW2*%
X109855000Y-88265000D03*
D11*
X104775000Y-88265000D03*
D10*
X99695000Y-88265000D03*
D12*
X102235000Y-93345000D03*
X108585000Y-90805000D03*
%TD*%
D10*
%TO.C,SW1*%
X109855000Y-69215000D03*
D11*
X104775000Y-69215000D03*
D10*
X99695000Y-69215000D03*
D12*
X102235000Y-74295000D03*
X108585000Y-71755000D03*
%TD*%
D13*
%TO.C,U1*%
X77724000Y-60325000D03*
X77724000Y-62865000D03*
X77724000Y-65405000D03*
X77724000Y-67945000D03*
X77724000Y-70485000D03*
X77724000Y-73025000D03*
X77724000Y-75565000D03*
X92964000Y-75565000D03*
X92964000Y-73025000D03*
X92964000Y-70485000D03*
X92964000Y-67945000D03*
X92964000Y-65405000D03*
X92964000Y-62865000D03*
X92964000Y-60325000D03*
%TD*%
D14*
%TO.C,SW12*%
X64175000Y-76719000D03*
D15*
X69175000Y-76719000D03*
X66675000Y-76719000D03*
D16*
X61075000Y-69219000D03*
X72275000Y-69219000D03*
D15*
X69175000Y-62219000D03*
X64175000Y-62219000D03*
%TD*%
D10*
%TO.C,SW3*%
X90805000Y-88265000D03*
D11*
X85725000Y-88265000D03*
D10*
X80645000Y-88265000D03*
D12*
X83185000Y-93345000D03*
X89535000Y-90805000D03*
%TD*%
D17*
%TO.C,D1*%
X106398000Y-62244000D03*
X106398000Y-63994000D03*
X102898000Y-63994000D03*
X102898000Y-62244000D03*
%TD*%
%TO.C,D2*%
X106525000Y-81294000D03*
X106525000Y-83044000D03*
X103025000Y-83044000D03*
X103025000Y-81294000D03*
%TD*%
%TO.C,D4*%
X68425000Y-81421000D03*
X68425000Y-83171000D03*
X64925000Y-83171000D03*
X64925000Y-81421000D03*
%TD*%
%TO.C,D3*%
X87447000Y-81534000D03*
X87447000Y-83284000D03*
X83947000Y-83284000D03*
X83947000Y-81534000D03*
%TD*%
M02*
